<svg width="70" height="65" viewBox="0 0 70 65" fill="none" xmlns="http://www.w3.org/2000/svg">
<path d="M29.2367 3.40269C31.7215 -1.13423 38.2964 -1.13423 40.7768 3.40269L69.2113 55.4105C69.7509 56.3997 70.0221 57.5107 69.9986 58.6349C69.9751 59.7591 69.6575 60.858 69.077 61.8242C68.4965 62.7905 67.6729 63.591 66.6866 64.1477C65.7003 64.7043 64.5852 64.998 63.45 65H6.56345C5.42635 65.0003 4.30868 64.7078 3.32004 64.1514C2.33139 63.5949 1.5057 62.7935 0.923907 61.8257C0.342117 60.8579 0.0242018 59.757 0.00132803 58.6309C-0.0215457 57.5047 0.251407 56.392 0.793428 55.4018L29.2367 3.40269ZM37.194 23.834C37.194 23.2594 36.9636 22.7083 36.5534 22.302C36.1432 21.8957 35.5868 21.6674 35.0067 21.6674C34.4266 21.6674 33.8703 21.8957 33.4601 22.302C33.0499 22.7083 32.8195 23.2594 32.8195 23.834V41.1671C32.8195 41.7417 33.0499 42.2928 33.4601 42.6991C33.8703 43.1054 34.4266 43.3337 35.0067 43.3337C35.5868 43.3337 36.1432 43.1054 36.5534 42.6991C36.9636 42.2928 37.194 41.7417 37.194 41.1671V23.834ZM38.2876 50.9169C38.2876 50.055 37.942 49.2283 37.3267 48.6188C36.7114 48.0094 35.8769 47.667 35.0067 47.667C34.1366 47.667 33.3021 48.0094 32.6868 48.6188C32.0715 49.2283 31.7258 50.055 31.7258 50.9169C31.7258 51.7788 32.0715 52.6055 32.6868 53.215C33.3021 53.8244 34.1366 54.1668 35.0067 54.1668C35.8769 54.1668 36.7114 53.8244 37.3267 53.215C37.942 52.6055 38.2876 51.7788 38.2876 50.9169Z" fill="#D6FF4E"/>
</svg>
