<svg width="141" height="129" viewBox="0 0 141 129" fill="none" xmlns="http://www.w3.org/2000/svg">
<ellipse cx="17.8927" cy="16.834" rx="17.8927" ry="16.834" transform="matrix(-0.00322488 0.999995 -0.999994 -0.00350566 33.8105 34.7578)" fill="#FCBA7D"/>
<path d="M33.92 70.6606L17.6425 70.4871L33.7524 52.2395L33.92 70.6606Z" fill="#FCBA7D"/>
<ellipse cx="10.3056" cy="12.0378" rx="10.3056" ry="12.0378" transform="matrix(-0.999999 0.00122203 -0.000941239 -1 133.836 42.416)" fill="#FCBA7D"/>
<path d="M113.157 42.6041L113.213 30.9638L123.767 42.4288L113.157 42.6041Z" fill="#FCBA7D"/>
<path d="M85.4204 90.3922C85.5235 76.6586 96.9193 65.4615 110.454 65.5634C123.989 65.6653 134.878 76.8812 134.775 90.6148C134.671 104.348 124.386 115.599 110.851 115.497C97.3164 115.395 85.4204 104.086 85.4204 90.3922Z" fill="#3FEBBD"/>
<path d="M85.4206 115.498L85.4206 91.371L110.852 115.498L85.4206 115.498Z" fill="#3FEBBD"/>
<path d="M56.7307 69.202C43.6847 69.1491 32.8861 79.6414 32.8298 92.2818C32.7734 104.922 43.6846 115.447 56.7307 115.499C69.7768 115.552 80.0174 105.114 80.0737 92.4734C80.13 79.833 69.7768 69.255 56.7307 69.202Z" fill="#D6FF4E"/>
<path d="M84.7682 69.2006L56.729 69.2006L56.729 115.498L84.7682 115.498L84.7682 69.2006Z" fill="#D6FF4E"/>
<path d="M58.6862 19.6436C58.7137 9.07888 62.322 1.99199 66.8371 2.03751C71.3523 2.08303 75.0156 9.07888 74.9881 19.6436C74.9606 30.2083 71.3951 38.4701 66.8799 38.4246C62.3648 38.3791 58.6587 30.2083 58.6862 19.6436Z" fill="#FCBA7D"/>
<path d="M58.6859 42.4656L58.686 19.6428L74.9877 19.6429L74.9877 42.4656L58.6859 42.4656Z" fill="#FCBA7D"/>
<path d="M76.9445 19.6436C76.972 9.07887 80.5803 0.0357684 85.0954 0.0812857C89.6106 0.126803 93.2739 9.07887 93.2464 19.6436C93.2189 30.2083 89.6535 38.4701 85.1383 38.4246C80.6232 38.3791 76.917 30.2083 76.9445 19.6436Z" fill="#FCBA7D"/>
<path d="M76.9437 42.4656L76.9438 19.643L93.2456 19.6429L93.2456 42.4656L76.9437 42.4656Z" fill="#FCBA7D"/>
<path d="M95.2017 19.643C95.1945 9.07841 98.8619 2.65834 103.353 2.68901C107.844 2.71967 111.496 9.07841 111.504 19.643C111.511 30.2076 108.006 38.4252 103.515 38.3946C99.0241 38.3639 95.209 30.2076 95.2017 19.643Z" fill="#FCBA7D"/>
<path d="M95.2012 42.4668L95.2012 19.6444L111.503 19.6444L111.504 42.4668L95.2012 42.4668Z" fill="#FCBA7D"/>
<path d="M41.1611 66.4169L41.4453 56.5424L43.789 56.531L44.1591 66.4024L41.1611 66.4169ZM44.1747 53.5018C44.1767 53.9119 44.0352 54.2577 43.7501 54.539C43.4649 54.8138 43.0815 54.9524 42.5997 54.9548C42.1245 54.9571 41.7397 54.8222 41.4454 54.5502C41.1576 54.2716 41.0127 53.9273 41.0107 53.5171C41.0087 53.107 41.1503 52.7612 41.4354 52.4799C41.727 52.1985 42.1104 52.0567 42.5857 52.0544C43.0674 52.0521 43.4522 52.1902 43.74 52.4687C44.0278 52.7473 44.1727 53.0916 44.1747 53.5018ZM87.4239 58.8782C87.4227 58.6243 87.3825 58.3966 87.3034 58.1952C87.2308 57.9872 87.0932 57.799 86.8905 57.6308C86.6879 57.456 86.4038 57.2848 86.0384 57.1173C85.673 56.9498 85.2002 56.7763 84.6199 56.5968C83.9743 56.3916 83.3612 56.1602 82.7806 55.9026C82.2064 55.645 81.6971 55.3447 81.2527 55.0018C80.8148 54.6524 80.4678 54.2471 80.2117 53.7861C79.962 53.3251 79.8357 52.7886 79.8328 52.1766C79.8299 51.5842 79.9575 51.0464 80.2156 50.5634C80.4736 50.0739 80.8362 49.6554 81.3033 49.3081C81.7703 48.9543 82.3224 48.6814 82.9595 48.4895C83.6031 48.2976 84.309 48.1998 85.0772 48.1961C86.1254 48.191 87.041 48.3754 87.8241 48.7492C88.6071 49.123 89.2151 49.6376 89.648 50.2931C90.0874 50.9485 90.3091 51.6994 90.3132 52.5457L87.4031 52.5599C87.4011 52.1432 87.3114 51.779 87.1341 51.4674C86.9633 51.1492 86.7017 50.8998 86.3492 50.7192C86.0033 50.5386 85.5667 50.4496 85.0393 50.4521C84.5315 50.4546 84.1087 50.5348 83.7709 50.6927C83.4331 50.844 83.1802 51.0504 83.0122 51.3116C82.8442 51.5663 82.7609 51.8532 82.7625 52.1722C82.7636 52.4131 82.8233 52.6309 82.9414 52.8256C83.0661 53.0203 83.2492 53.2017 83.4909 53.3698C83.7326 53.5379 84.0296 53.696 84.3819 53.844C84.7342 53.9921 85.1418 54.1366 85.6047 54.2776C86.3806 54.5082 87.0622 54.7686 87.6496 55.0587C88.2434 55.3488 88.7398 55.6752 89.1387 56.0378C89.5376 56.4005 89.8391 56.8124 90.0431 57.2737C90.2472 57.7349 90.3507 58.2585 90.3535 58.8445C90.3565 59.4629 90.2387 60.0169 90.0002 60.5063C89.7617 60.9958 89.4154 61.4109 88.9613 61.7516C88.5072 62.0924 87.9649 62.3522 87.3342 62.531C86.7036 62.7098 85.9976 62.8012 85.2164 62.8049C84.5133 62.8084 83.8195 62.7206 83.135 62.5416C82.4505 62.3561 81.8274 62.0759 81.2657 61.701C80.7105 61.3261 80.2654 60.8465 79.9306 60.2622C79.5957 59.6779 79.4263 58.9853 79.4224 58.1845L82.3619 58.1703C82.364 58.613 82.4342 58.987 82.5724 59.2923C82.7106 59.5977 82.9038 59.8441 83.1521 60.0317C83.407 60.2193 83.7071 60.3545 84.0526 60.4375C84.4045 60.5204 84.7888 60.5609 85.2055 60.5589C85.7133 60.5564 86.1296 60.4828 86.4544 60.338C86.7858 60.1931 87.0289 59.9934 87.184 59.7387C87.3455 59.484 87.4255 59.1972 87.4239 58.8782ZM98.4257 60.0163L98.3867 51.9793L101.199 51.9656L101.25 62.5319L98.604 62.5447L98.4257 60.0163ZM98.7277 57.8468L99.5576 57.8233C99.561 58.5264 99.4828 59.1811 99.323 59.7873C99.1632 60.3871 98.9215 60.9091 98.5982 61.3534C98.2748 61.7911 97.8663 62.1349 97.3727 62.3847C96.8791 62.628 96.297 62.7512 95.6264 62.7545C95.1121 62.757 94.6365 62.6877 94.1996 62.5466C93.7692 62.3989 93.397 62.1696 93.083 61.8586C92.7755 61.5411 92.5326 61.1354 92.3544 60.6414C92.1827 60.1409 92.0952 59.5391 92.0918 58.836L92.0587 52.0099L94.8711 51.9963L94.9043 58.8419C94.9058 59.1544 94.9429 59.4179 95.0156 59.6324C95.0947 59.8469 95.203 60.0221 95.3404 60.1582C95.4778 60.2942 95.6377 60.3911 95.8203 60.4488C96.0094 60.5065 96.2179 60.5348 96.4457 60.5337C97.0252 60.5309 97.4803 60.4115 97.8112 60.1755C98.1486 59.9395 98.3847 59.6193 98.5195 59.215C98.6607 58.8042 98.7301 58.3481 98.7277 57.8468ZM106.171 54.1291L106.211 62.5079L103.389 62.5216L103.338 51.9553L105.984 51.9424L106.171 54.1291ZM105.793 56.8555L105.012 56.8593C105.008 56.1237 105.093 55.4462 105.266 54.8268C105.445 54.2009 105.706 53.6593 106.049 53.2019C106.398 52.738 106.83 52.3778 107.343 52.1214C107.856 51.865 108.451 51.7352 109.128 51.7319C109.597 51.7296 110.027 51.7992 110.418 51.9405C110.809 52.0753 111.146 52.2918 111.427 52.5899C111.715 52.8815 111.938 53.2645 112.097 53.739C112.255 54.207 112.336 54.7698 112.339 55.4273L112.373 62.478L109.561 62.4916L109.528 55.7534C109.526 55.2717 109.459 54.9009 109.327 54.6411C109.196 54.3813 109.01 54.1999 108.768 54.0969C108.533 53.9939 108.25 53.9432 107.918 53.9448C107.553 53.9466 107.235 54.023 106.962 54.1741C106.696 54.3251 106.475 54.5345 106.301 54.8023C106.126 55.0635 105.998 55.3702 105.915 55.7221C105.832 56.0741 105.791 56.4519 105.793 56.8555ZM112.081 56.5028L111.075 56.6346C111.072 55.9445 111.154 55.3028 111.32 54.7096C111.493 54.1163 111.748 53.5942 112.084 53.1434C112.427 52.6925 112.852 52.3421 113.358 52.0923C113.865 51.8359 114.45 51.7061 115.114 51.7029C115.622 51.7004 116.085 51.773 116.502 51.9208C116.919 52.062 117.275 52.2914 117.57 52.609C117.871 52.92 118.101 53.3291 118.259 53.8361C118.424 54.3431 118.509 54.9645 118.512 55.7001L118.545 62.4481L115.723 62.4618L115.69 55.7138C115.688 55.2255 115.621 54.8548 115.489 54.6015C115.365 54.3417 115.181 54.1635 114.94 54.067C114.705 53.964 114.425 53.9133 114.099 53.9149C113.761 53.9165 113.465 53.9863 113.212 54.1242C112.958 54.2557 112.748 54.439 112.58 54.6742C112.412 54.9094 112.286 55.1834 112.203 55.4963C112.12 55.8027 112.079 56.1382 112.081 56.5028ZM120.249 57.264L120.248 57.0589C120.244 56.2842 120.351 55.5708 120.569 54.9187C120.787 54.2601 121.107 53.6888 121.528 53.205C121.949 52.7212 122.468 52.3443 123.085 52.0744C123.702 51.798 124.411 51.6578 125.212 51.6539C126.012 51.6501 126.726 51.7833 127.352 52.0537C127.979 52.3176 128.504 52.6894 128.93 53.1691C129.362 53.6488 129.69 54.2169 129.915 54.8734C130.139 55.5233 130.253 56.2357 130.257 57.0104L130.258 57.2155C130.262 57.9837 130.155 58.6971 129.937 59.3557C129.718 60.0078 129.396 60.5791 128.968 61.0694C128.547 61.5533 128.028 61.9301 127.411 62.2C126.794 62.47 126.085 62.6069 125.284 62.6108C124.483 62.6146 123.77 62.4846 123.144 62.2207C122.524 61.9568 121.998 61.585 121.566 61.1053C121.14 60.6191 120.815 60.051 120.591 59.401C120.366 58.7446 120.252 58.0322 120.249 57.264ZM123.06 57.0453L123.061 57.2504C123.063 57.6931 123.104 58.1063 123.184 58.49C123.264 58.8738 123.39 59.2117 123.56 59.5038C123.737 59.7894 123.966 60.0129 124.247 60.1743C124.528 60.3357 124.87 60.4155 125.274 60.4135C125.664 60.4116 125.999 60.3286 126.278 60.1645C126.557 60.0004 126.781 59.7747 126.949 59.4874C127.117 59.1936 127.239 58.8545 127.315 58.47C127.398 58.0855 127.438 57.6719 127.436 57.2292L127.435 57.0241C127.433 56.5944 127.389 56.191 127.302 55.8138C127.222 55.43 127.094 55.0921 126.916 54.8C126.746 54.5014 126.52 54.2681 126.239 54.1002C125.958 53.9323 125.619 53.8493 125.222 53.8512C124.825 53.8531 124.487 53.9394 124.208 54.11C123.935 54.2806 123.712 54.5161 123.537 54.8164C123.37 55.1102 123.248 55.4493 123.171 55.8338C123.095 56.2118 123.058 56.6156 123.06 57.0453Z" fill="#D6FF4E"/>
<path d="M48.0083 48.571L50.4887 48.559L54.1916 58.9807L57.7933 48.5236L60.2738 48.5116L55.206 62.7551L53.2139 62.7647L48.0083 48.571ZM46.6704 48.5775L49.1411 48.5656L49.6396 58.739L49.6592 62.782L46.7393 62.7961L46.6704 48.5775ZM59.141 48.5171L61.6214 48.5051L61.6903 62.7237L58.7607 62.7379L58.7411 58.6949L59.141 48.5171ZM68.947 62.8838C68.1267 62.8878 67.3904 62.7611 66.7381 62.5039C66.0858 62.2401 65.5307 61.875 65.0727 61.4084C64.6212 60.9418 64.2735 60.3999 64.0296 59.7826C63.7857 59.1588 63.662 58.4953 63.6586 57.7922L63.6567 57.4016C63.6529 56.6008 63.7632 55.8678 63.9879 55.2027C64.2125 54.5375 64.5352 53.9598 64.9561 53.4694C65.3834 52.9791 65.9024 52.6022 66.5131 52.3388C67.1238 52.0689 67.8132 51.9321 68.5814 51.9284C69.3301 51.9248 69.9948 52.0453 70.5754 52.2898C71.156 52.5344 71.6427 52.8836 72.0356 53.3375C72.4349 53.7913 72.737 54.3367 72.942 54.9737C73.1468 55.6042 73.2512 56.3069 73.2549 57.0816L73.2606 58.2535L64.8623 58.2942L64.8532 56.4192L70.4879 56.3919L70.4868 56.177C70.4849 55.7864 70.4116 55.4385 70.2669 55.1332C70.1287 54.8213 69.9192 54.575 69.6383 54.394C69.3575 54.2131 68.999 54.1237 68.5628 54.1258C68.1917 54.1276 67.8731 54.2105 67.607 54.3746C67.3408 54.5386 67.1238 54.7675 66.956 55.0613C66.7946 55.3551 66.6726 55.7007 66.5899 56.0983C66.5137 56.4893 66.4767 56.9191 66.479 57.3879L66.4809 57.7785C66.4829 58.2017 66.5434 58.592 66.6623 58.9495C66.7878 59.307 66.9618 59.6154 67.1844 59.8747C67.4135 60.134 67.6879 60.3345 68.0076 60.4762C68.3338 60.6179 68.702 60.6877 69.1122 60.6857C69.62 60.6832 70.0915 60.5833 70.5268 60.3859C70.9685 60.1819 71.3479 59.8773 71.6649 59.4721L73.0393 60.9499C72.8195 61.27 72.5182 61.5774 72.1355 61.8722C71.7594 62.167 71.3048 62.4101 70.7719 62.6015C70.2389 62.7864 69.6306 62.8805 68.947 62.8838ZM135.117 48.1489L134.842 58.0234L132.499 58.0347L132.119 48.1634L135.117 48.1489ZM132.103 61.0933C132.101 60.6766 132.243 60.3309 132.528 60.0561C132.819 59.7747 133.203 59.6329 133.678 59.6306C134.16 59.6282 134.545 59.7664 134.832 60.0449C135.12 60.317 135.265 60.6613 135.267 61.078C135.269 61.4816 135.128 61.8241 134.842 62.1054C134.557 62.3868 134.174 62.5286 133.692 62.5309C133.217 62.5332 132.832 62.3951 132.538 62.1166C132.25 61.838 132.105 61.497 132.103 61.0933Z" fill="#3FEBBD"/>
</svg>
