<svg width="141" height="129" viewBox="0 0 70 57" fill="none" xmlns="http://www.w3.org/2000/svg">
<ellipse cx="7.8359" cy="7.37225" rx="7.8359" ry="7.37225" transform="matrix(-0.00322487 0.999995 -0.999994 -0.00350566 14.8071 15.2227)" fill="#FCBA7D"/>
<path d="M14.855 30.9429L7.72651 30.8669L14.7817 22.8756L14.855 30.9429Z" fill="#FCBA7D"/>
<ellipse cx="4.51322" cy="5.27184" rx="4.51322" ry="5.27184" transform="matrix(-0.999999 0.00122203 -0.000941238 -1 58.6133 18.5737)" fill="#FCBA7D"/>
<path d="M49.5568 18.6552L49.5813 13.5574L54.203 18.5784L49.5568 18.6552Z" fill="#FCBA7D"/>
<path d="M37.4097 39.5865C37.4549 33.572 42.4455 28.6684 48.373 28.713C54.3004 28.7576 59.069 33.6695 59.0238 39.684C58.9787 45.6985 54.4743 50.6256 48.5469 50.5809C42.6194 50.5363 37.4097 45.5835 37.4097 39.5865Z" fill="#3FEBBD"/>
<path d="M37.4095 50.5811L37.4095 40.015L48.5467 50.5811L37.4095 50.5811Z" fill="#3FEBBD"/>
<path d="M24.8443 30.305C19.1309 30.2818 14.4018 34.8768 14.3772 40.4126C14.3525 45.9483 19.1309 50.5574 24.8443 50.5805C30.5577 50.6037 35.0424 46.0322 35.0671 40.4965C35.0918 34.9608 30.5577 30.3282 24.8443 30.305Z" fill="#D6FF4E"/>
<path d="M37.1245 30.3088L24.8451 30.3088L24.8451 50.5842L37.1245 50.5842L37.1245 30.3088Z" fill="#D6FF4E"/>
<path d="M25.7002 8.6032C25.7122 3.97649 27.2924 0.872857 29.2698 0.89279C31.2471 0.912724 32.8515 3.97649 32.8394 8.6032C32.8273 13.2299 31.2659 16.8481 29.2885 16.8282C27.3112 16.8083 25.6881 13.2299 25.7002 8.6032Z" fill="#FCBA7D"/>
<path d="M25.7013 18.5977L25.7014 8.60272L32.8405 8.60273L32.8405 18.5977L25.7013 18.5977Z" fill="#FCBA7D"/>
<path d="M33.6953 8.60297C33.7073 3.97626 35.2875 0.015924 37.2649 0.0358578C39.2422 0.0557915 40.8466 3.97626 40.8345 8.60297C40.8225 13.2297 39.261 16.8479 37.2837 16.8279C35.3063 16.808 33.6832 13.2297 33.6953 8.60297Z" fill="#FCBA7D"/>
<path d="M33.694 18.5975L33.694 8.60255L40.8332 8.60254L40.8332 18.5975L33.694 18.5975Z" fill="#FCBA7D"/>
<path d="M41.692 8.60237C41.6888 3.97571 43.2949 1.1641 45.2616 1.17753C47.2283 1.19096 48.828 3.97571 48.8312 8.60237C48.8344 13.229 47.2994 16.8279 45.3326 16.8145C43.3659 16.801 41.6952 13.229 41.692 8.60237Z" fill="#FCBA7D"/>
<path d="M41.6924 18.5974L41.6924 8.60258L48.8317 8.60258L48.8318 18.5974L41.6924 18.5974Z" fill="#FCBA7D"/>
<path d="M24.0856 29.0298L24.2135 24.5863L25.2682 24.5811L25.4347 29.0233L24.0856 29.0298ZM25.4417 23.218C25.4426 23.4025 25.3789 23.5581 25.2506 23.6847C25.1223 23.8084 24.9498 23.8708 24.733 23.8718C24.5191 23.8728 24.346 23.8122 24.2135 23.6898C24.084 23.5644 24.0188 23.4094 24.0179 23.2249C24.017 23.0403 24.0807 22.8847 24.209 22.7581C24.3402 22.6315 24.5128 22.5677 24.7266 22.5667C24.9434 22.5656 25.1166 22.6278 25.2461 22.7531C25.3756 22.8785 25.4408 23.0334 25.4417 23.218ZM47.8654 23.7333L47.8707 24.8363L43.485 24.8576L43.4797 23.7546L47.8654 23.7333ZM46.2662 22.0052L46.2888 26.6634L45.0891 26.6692L45.0665 22.011L46.2662 22.0052Z" fill="#D6FF4E"/>
<path d="M29.408 20.9883L30.5242 20.9829L32.1905 25.6726L33.8113 20.9669L34.9275 20.9615L32.647 27.3711L31.7505 27.3754L29.408 20.9883ZM28.806 20.9912L29.9178 20.9858L30.1421 25.5639L30.1509 27.3832L28.837 27.3896L28.806 20.9912ZM34.4177 20.964L35.5339 20.9586L35.5649 27.357L34.2466 27.3633L34.2378 25.544L34.4177 20.964ZM38.8305 27.429C38.4613 27.4308 38.13 27.3738 37.8365 27.2581C37.5429 27.1394 37.2931 26.975 37.087 26.7651C36.8838 26.5551 36.7274 26.3113 36.6176 26.0335C36.5079 25.7528 36.4522 25.4542 36.4507 25.1378L36.4498 24.962C36.4481 24.6017 36.4977 24.2718 36.5988 23.9725C36.6999 23.6732 36.8452 23.4132 37.0345 23.1926C37.2268 22.9719 37.4604 22.8023 37.7352 22.6838C38.01 22.5623 38.3202 22.5008 38.6659 22.4991C39.0028 22.4975 39.3019 22.5517 39.5632 22.6617C39.8245 22.7718 40.0435 22.9289 40.2203 23.1332C40.4 23.3374 40.536 23.5828 40.6282 23.8695C40.7204 24.1532 40.7673 24.4694 40.769 24.818L40.7716 25.3454L36.9923 25.3637L36.9882 24.5199L39.5238 24.5077L39.5234 24.411C39.5225 24.2352 39.4895 24.0786 39.4244 23.9412C39.3622 23.8009 39.2679 23.69 39.1415 23.6086C39.0152 23.5272 38.8538 23.487 38.6575 23.4879C38.4906 23.4887 38.3472 23.526 38.2274 23.5999C38.1077 23.6737 38.01 23.7767 37.9345 23.9089C37.8619 24.0411 37.807 24.1966 37.7697 24.3755C37.7354 24.5515 37.7188 24.7449 37.7198 24.9559L37.7207 25.1316C37.7216 25.3221 37.7488 25.4977 37.8023 25.6586C37.8588 25.8195 37.9371 25.9582 38.0373 26.0749C38.1404 26.1916 38.2639 26.2818 38.4077 26.3456C38.5545 26.4093 38.7202 26.4408 38.9048 26.4399C39.1333 26.4388 39.3455 26.3938 39.5413 26.305C39.7401 26.2132 39.9108 26.0761 40.0535 25.8938L40.672 26.5588C40.5731 26.7028 40.4375 26.8411 40.2653 26.9738C40.096 27.1065 39.8915 27.2159 39.6516 27.302C39.4118 27.3852 39.1381 27.4275 38.8305 27.429ZM52.2857 20.8774L52.1622 25.3209L51.1075 25.326L50.9366 20.8839L52.2857 20.8774ZM50.9296 26.7024C50.9287 26.5149 50.9924 26.3593 51.1207 26.2357C51.2519 26.109 51.4245 26.0452 51.6384 26.0442C51.8551 26.0431 52.0283 26.1053 52.1578 26.2306C52.2873 26.353 52.3525 26.508 52.3534 26.6955C52.3543 26.8771 52.2906 27.0313 52.1623 27.1579C52.034 27.2845 51.8615 27.3483 51.6447 27.3493C51.4308 27.3504 51.2577 27.2882 51.1252 27.1629C50.9957 27.0375 50.9305 26.884 50.9296 26.7024Z" fill="#3FEBBD"/>
</svg>
